<?xml version="1.0" encoding="us-ascii" standalone="no"?><svg xmlns="http://www.w3.org/2000/svg" xmlns:xlink="http://www.w3.org/1999/xlink" contentStyleType="text/css" height="423.6px" preserveAspectRatio="none" style="width:654px;height:423px;background:#FFFFFF;" version="1.1" viewBox="0 0 654 423" width="654px" zoomAndPan="magnify"><defs/><g><!--class Person--><g id="elem_Person"><rect codeLine="2" fill="#F1F1F1" height="84.6633" id="Person" rx="1.5" ry="1.5" style="stroke:#181818;stroke-width:0.3;" width="148.8" x="273" y="4.2"/><ellipse cx="331.35" cy="13.8" fill="#ADD1B2" rx="6.6" ry="6.6" style="stroke:#181818;stroke-width:0.6;"/><path d="M333.0094,11.325 Q333.1031,11.1938 333.2156,11.1281 Q333.3281,11.0625 333.4594,11.0625 Q333.6844,11.0625 333.825,11.2219 Q333.9656,11.3719 333.9656,11.7375 L333.9656,12.6094 Q333.9656,12.975 333.825,13.1344 Q333.6844,13.2938 333.4594,13.2938 Q333.2531,13.2938 333.1312,13.1719 Q333.0094,13.0594 332.9437,12.75 Q332.9156,12.5344 332.8031,12.4219 Q332.6063,12.1969 332.2406,12.0656 Q331.875,11.9344 331.5,11.9344 Q331.0406,11.9344 330.6563,12.1313 Q330.2813,12.3281 329.9813,12.7781 Q329.6906,13.2281 329.6906,13.8469 L329.6906,14.5031 Q329.6906,15.2437 330.225,15.7406 Q330.7594,16.2281 331.7156,16.2281 Q332.2781,16.2281 332.6719,16.0781 Q332.9063,15.9844 333.1594,15.7219 Q333.3187,15.5625 333.4031,15.5156 Q333.4969,15.4688 333.6188,15.4688 Q333.8156,15.4688 333.9656,15.6281 Q334.125,15.7781 334.125,15.9844 Q334.125,16.1906 333.9188,16.4344 Q333.6188,16.7813 333.1406,16.9781 Q332.4938,17.25 331.7156,17.25 Q330.8063,17.25 330.0844,16.875 Q329.4938,16.575 329.0813,15.9375 Q328.6688,15.2906 328.6688,14.5219 L328.6688,13.8281 Q328.6688,13.0313 329.0344,12.3469 Q329.4094,11.6531 330.0656,11.2875 Q330.7219,10.9125 331.4625,10.9125 Q331.9031,10.9125 332.2875,11.0156 Q332.6813,11.1094 333.0094,11.325 Z " fill="#000000"/><text fill="#000000" font-family="sans-serif" font-size="8.4" lengthAdjust="spacing" textLength="27" x="343.65" y="17.2781">Person</text><line style="stroke:#181818;stroke-width:0.3;" x1="273.6" x2="421.2" y1="23.4" y2="23.4"/><rect fill="none" height="3.6" style="stroke:#C82930;stroke-width:0.6;" width="3.6" x="277.8" y="30.4863"/><text fill="#000000" font-family="sans-serif" font-size="8.4" lengthAdjust="spacing" textLength="46.8" x="285" y="34.8645">name: string</text><rect fill="none" height="3.6" style="stroke:#C82930;stroke-width:0.6;" width="3.6" x="277.8" y="41.659"/><text fill="#000000" font-family="sans-serif" font-size="8.4" lengthAdjust="spacing" textLength="45.6" x="285" y="46.0371">email: string</text><line style="stroke:#181818;stroke-width:0.3;" x1="273.6" x2="421.2" y1="50.5453" y2="50.5453"/><ellipse cx="279.6" cy="59.4316" fill="#84BE84" rx="1.8" ry="1.8" style="stroke:#038048;stroke-width:0.6;"/><text fill="#000000" font-family="sans-serif" font-size="8.4" lengthAdjust="spacing" textLength="133.2" x="285" y="62.0098">__init__(name: string, email: string)</text><ellipse cx="279.6" cy="70.6043" fill="#84BE84" rx="1.8" ry="1.8" style="stroke:#038048;stroke-width:0.6;"/><text fill="#000000" font-family="sans-serif" font-size="8.4" lengthAdjust="spacing" textLength="60.6" x="285" y="73.1824">__str__(): string</text><ellipse cx="279.6" cy="81.777" fill="#84BE84" rx="1.8" ry="1.8" style="stroke:#038048;stroke-width:0.6;"/><text fill="#000000" font-family="sans-serif" font-size="8.4" lengthAdjust="spacing" textLength="72" x="285" y="84.3551">id_number(): string</text></g><!--class Administrator--><g id="elem_Administrator"><rect codeLine="10" fill="#F1F1F1" height="151.6992" id="Administrator" rx="1.5" ry="1.5" style="stroke:#181818;stroke-width:0.3;" width="370.8" x="4.2" y="124.8"/><ellipse cx="162.15" cy="134.4" fill="#ADD1B2" rx="6.6" ry="6.6" style="stroke:#181818;stroke-width:0.6;"/><path d="M163.8094,131.925 Q163.9031,131.7938 164.0156,131.7281 Q164.1281,131.6625 164.2594,131.6625 Q164.4844,131.6625 164.625,131.8219 Q164.7656,131.9719 164.7656,132.3375 L164.7656,133.2094 Q164.7656,133.575 164.625,133.7344 Q164.4844,133.8937 164.2594,133.8937 Q164.0531,133.8937 163.9313,133.7719 Q163.8094,133.6594 163.7438,133.35 Q163.7156,133.1344 163.6031,133.0219 Q163.4063,132.7969 163.0406,132.6656 Q162.675,132.5344 162.3,132.5344 Q161.8406,132.5344 161.4562,132.7313 Q161.0812,132.9281 160.7813,133.3781 Q160.4906,133.8281 160.4906,134.4469 L160.4906,135.1031 Q160.4906,135.8438 161.025,136.3406 Q161.5594,136.8281 162.5156,136.8281 Q163.0781,136.8281 163.4719,136.6781 Q163.7062,136.5844 163.9594,136.3219 Q164.1188,136.1625 164.2031,136.1156 Q164.2969,136.0688 164.4188,136.0688 Q164.6156,136.0688 164.7656,136.2281 Q164.925,136.3781 164.925,136.5844 Q164.925,136.7906 164.7188,137.0344 Q164.4188,137.3813 163.9406,137.5781 Q163.2938,137.85 162.5156,137.85 Q161.6063,137.85 160.8844,137.475 Q160.2938,137.175 159.8813,136.5375 Q159.4688,135.8906 159.4688,135.1219 L159.4688,134.4281 Q159.4688,133.6313 159.8344,132.9469 Q160.2094,132.2531 160.8656,131.8875 Q161.5219,131.5125 162.2625,131.5125 Q162.7031,131.5125 163.0875,131.6156 Q163.4813,131.7094 163.8094,131.925 Z " fill="#000000"/><text fill="#000000" font-family="sans-serif" font-size="8.4" lengthAdjust="spacing" textLength="49.8" x="174.45" y="137.8781">Administrator</text><line style="stroke:#181818;stroke-width:0.3;" x1="4.8" x2="374.4" y1="144" y2="144"/><rect fill="none" height="3.6" style="stroke:#C82930;stroke-width:0.6;" width="3.6" x="9" y="151.0863"/><text fill="#000000" font-family="sans-serif" font-size="8.4" lengthAdjust="spacing" textLength="60" x="16.2" y="155.4645">admin_id: string</text><rect fill="none" height="3.6" style="stroke:#C82930;stroke-width:0.6;" width="3.6" x="9" y="162.259"/><text fill="#000000" font-family="sans-serif" font-size="8.4" lengthAdjust="spacing" textLength="61.8" x="16.2" y="166.6371">password: string</text><rect fill="none" height="3.6" style="stroke:#C82930;stroke-width:0.6;" width="3.6" x="9" y="173.4316"/><text fill="#000000" font-family="sans-serif" font-size="8.4" lengthAdjust="spacing" textLength="86.4" x="16.2" y="177.8098">students: list&lt;Student&gt;</text><line style="stroke:#181818;stroke-width:0.3;" x1="4.8" x2="374.4" y1="182.318" y2="182.318"/><ellipse cx="10.8" cy="191.2043" fill="#84BE84" rx="1.8" ry="1.8" style="stroke:#038048;stroke-width:0.6;"/><text fill="#000000" font-family="sans-serif" font-size="8.4" lengthAdjust="spacing" textLength="264.6" x="16.2" y="193.7824">__init__(admin_id: string, password: string, name: string, email: string)</text><ellipse cx="10.8" cy="202.377" fill="#84BE84" rx="1.8" ry="1.8" style="stroke:#038048;stroke-width:0.6;"/><text fill="#000000" font-family="sans-serif" font-size="8.4" lengthAdjust="spacing" textLength="55.2" x="16.2" y="204.9551">get_id(): string</text><ellipse cx="10.8" cy="213.5496" fill="#84BE84" rx="1.8" ry="1.8" style="stroke:#038048;stroke-width:0.6;"/><text fill="#000000" font-family="sans-serif" font-size="8.4" lengthAdjust="spacing" textLength="66.6" x="16.2" y="216.1277">get_pass(): string</text><ellipse cx="10.8" cy="224.7223" fill="#84BE84" rx="1.8" ry="1.8" style="stroke:#038048;stroke-width:0.6;"/><text fill="#000000" font-family="sans-serif" font-size="8.4" lengthAdjust="spacing" textLength="115.8" x="16.2" y="227.3004">add_student(student: Student)</text><ellipse cx="10.8" cy="235.8949" fill="#84BE84" rx="1.8" ry="1.8" style="stroke:#038048;stroke-width:0.6;"/><text fill="#000000" font-family="sans-serif" font-size="8.4" lengthAdjust="spacing" textLength="232.8" x="16.2" y="238.473">update_student(student_id: string, name: string, email: string)</text><ellipse cx="10.8" cy="247.0676" fill="#84BE84" rx="1.8" ry="1.8" style="stroke:#038048;stroke-width:0.6;"/><text fill="#000000" font-family="sans-serif" font-size="8.4" lengthAdjust="spacing" textLength="355.2" x="16.2" y="249.6457">add_report(student_id: string, course_id: string, course_name: string, credits: int, grade: float)</text><ellipse cx="10.8" cy="258.2402" fill="#84BE84" rx="1.8" ry="1.8" style="stroke:#038048;stroke-width:0.6;"/><text fill="#000000" font-family="sans-serif" font-size="8.4" lengthAdjust="spacing" textLength="127.8" x="16.2" y="260.8184">delete_student(student_id: string)</text><ellipse cx="10.8" cy="269.4129" fill="#84BE84" rx="1.8" ry="1.8" style="stroke:#038048;stroke-width:0.6;"/><text fill="#000000" font-family="sans-serif" font-size="8.4" lengthAdjust="spacing" textLength="102.6" x="16.2" y="271.991">get_gpa(student_id: string)</text></g><!--class Student--><g id="elem_Student"><rect codeLine="24" fill="#F1F1F1" height="118.1812" id="Student" rx="1.5" ry="1.5" style="stroke:#181818;stroke-width:0.3;" width="219" x="396.3" y="141.6"/><ellipse cx="488.55" cy="151.2" fill="#ADD1B2" rx="6.6" ry="6.6" style="stroke:#181818;stroke-width:0.6;"/><path d="M490.2094,148.725 Q490.3031,148.5938 490.4156,148.5281 Q490.5281,148.4625 490.6594,148.4625 Q490.8844,148.4625 491.025,148.6219 Q491.1656,148.7719 491.1656,149.1375 L491.1656,150.0094 Q491.1656,150.375 491.025,150.5344 Q490.8844,150.6938 490.6594,150.6938 Q490.4531,150.6938 490.3312,150.5719 Q490.2094,150.4594 490.1437,150.15 Q490.1156,149.9344 490.0031,149.8219 Q489.8063,149.5969 489.4406,149.4656 Q489.075,149.3344 488.7,149.3344 Q488.2406,149.3344 487.8563,149.5313 Q487.4813,149.7281 487.1813,150.1781 Q486.8906,150.6281 486.8906,151.2469 L486.8906,151.9031 Q486.8906,152.6437 487.425,153.1406 Q487.9594,153.6281 488.9156,153.6281 Q489.4781,153.6281 489.8719,153.4781 Q490.1063,153.3844 490.3594,153.1219 Q490.5187,152.9625 490.6031,152.9156 Q490.6969,152.8688 490.8187,152.8688 Q491.0156,152.8688 491.1656,153.0281 Q491.325,153.1781 491.325,153.3844 Q491.325,153.5906 491.1188,153.8344 Q490.8187,154.1813 490.3406,154.3781 Q489.6937,154.65 488.9156,154.65 Q488.0062,154.65 487.2844,154.275 Q486.6937,153.975 486.2813,153.3375 Q485.8688,152.6906 485.8688,151.9219 L485.8688,151.2281 Q485.8688,150.4313 486.2344,149.7469 Q486.6094,149.0531 487.2656,148.6875 Q487.9219,148.3125 488.6625,148.3125 Q489.1031,148.3125 489.4875,148.4156 Q489.8812,148.5094 490.2094,148.725 Z " fill="#000000"/><text fill="#000000" font-family="sans-serif" font-size="8.4" lengthAdjust="spacing" textLength="29.4" x="500.85" y="154.6781">Student</text><line style="stroke:#181818;stroke-width:0.3;" x1="396.9" x2="614.7" y1="160.8" y2="160.8"/><rect fill="none" height="3.6" style="stroke:#C82930;stroke-width:0.6;" width="3.6" x="401.1" y="167.8863"/><text fill="#000000" font-family="sans-serif" font-size="8.4" lengthAdjust="spacing" textLength="65.4" x="408.3" y="172.2645">student_id: string</text><rect fill="none" height="3.6" style="stroke:#C82930;stroke-width:0.6;" width="3.6" x="401.1" y="179.059"/><text fill="#000000" font-family="sans-serif" font-size="8.4" lengthAdjust="spacing" textLength="82.2" x="408.3" y="183.4371">courses: list&lt;Course&gt;</text><line style="stroke:#181818;stroke-width:0.3;" x1="396.9" x2="614.7" y1="187.9453" y2="187.9453"/><ellipse cx="402.9" cy="196.8316" fill="#84BE84" rx="1.8" ry="1.8" style="stroke:#038048;stroke-width:0.6;"/><text fill="#000000" font-family="sans-serif" font-size="8.4" lengthAdjust="spacing" textLength="203.4" x="408.3" y="199.4098">__init__(student_id: string, name: string, email: string)</text><ellipse cx="402.9" cy="208.0043" fill="#84BE84" rx="1.8" ry="1.8" style="stroke:#038048;stroke-width:0.6;"/><text fill="#000000" font-family="sans-serif" font-size="8.4" lengthAdjust="spacing" textLength="109.2" x="408.3" y="210.5824">add_course(course: Course)</text><ellipse cx="402.9" cy="219.177" fill="#84BE84" rx="1.8" ry="1.8" style="stroke:#038048;stroke-width:0.6;"/><text fill="#000000" font-family="sans-serif" font-size="8.4" lengthAdjust="spacing" textLength="123" x="408.3" y="221.7551">remove_course(course: Course)</text><ellipse cx="402.9" cy="230.3496" fill="#84BE84" rx="1.8" ry="1.8" style="stroke:#038048;stroke-width:0.6;"/><text fill="#000000" font-family="sans-serif" font-size="8.4" lengthAdjust="spacing" textLength="105" x="408.3" y="232.9277">get_courses(): list&lt;Course&gt;</text><ellipse cx="402.9" cy="241.5223" fill="#84BE84" rx="1.8" ry="1.8" style="stroke:#038048;stroke-width:0.6;"/><text fill="#000000" font-family="sans-serif" font-size="8.4" lengthAdjust="spacing" textLength="72" x="408.3" y="244.1004">id_number(): string</text><ellipse cx="402.9" cy="252.6949" fill="#84BE84" rx="1.8" ry="1.8" style="stroke:#038048;stroke-width:0.6;"/><text fill="#000000" font-family="sans-serif" font-size="8.4" lengthAdjust="spacing" textLength="58.2" x="408.3" y="255.273">get_gpa(): float</text></g><!--class Course--><g id="elem_Course"><rect codeLine="35" fill="#F1F1F1" height="107.0086" id="Course" rx="1.5" ry="1.5" style="stroke:#181818;stroke-width:0.3;" width="288.6" x="361.5" y="312.6"/><ellipse cx="489.45" cy="322.2" fill="#ADD1B2" rx="6.6" ry="6.6" style="stroke:#181818;stroke-width:0.6;"/><path d="M491.1094,319.725 Q491.2031,319.5938 491.3156,319.5281 Q491.4281,319.4625 491.5594,319.4625 Q491.7844,319.4625 491.925,319.6219 Q492.0656,319.7719 492.0656,320.1375 L492.0656,321.0094 Q492.0656,321.375 491.925,321.5344 Q491.7844,321.6937 491.5594,321.6937 Q491.3531,321.6937 491.2313,321.5719 Q491.1094,321.4594 491.0438,321.15 Q491.0156,320.9344 490.9031,320.8219 Q490.7062,320.5969 490.3406,320.4656 Q489.975,320.3344 489.6,320.3344 Q489.1406,320.3344 488.7562,320.5313 Q488.3812,320.7281 488.0812,321.1781 Q487.7906,321.6281 487.7906,322.2469 L487.7906,322.9031 Q487.7906,323.6438 488.325,324.1406 Q488.8594,324.6281 489.8156,324.6281 Q490.3781,324.6281 490.7719,324.4781 Q491.0062,324.3844 491.2594,324.1219 Q491.4188,323.9625 491.5031,323.9156 Q491.5969,323.8688 491.7188,323.8688 Q491.9156,323.8688 492.0656,324.0281 Q492.225,324.1781 492.225,324.3844 Q492.225,324.5906 492.0187,324.8344 Q491.7188,325.1813 491.2406,325.3781 Q490.5938,325.65 489.8156,325.65 Q488.9063,325.65 488.1844,325.275 Q487.5938,324.975 487.1813,324.3375 Q486.7687,323.6906 486.7687,322.9219 L486.7687,322.2281 Q486.7687,321.4313 487.1344,320.7469 Q487.5094,320.0531 488.1656,319.6875 Q488.8219,319.3125 489.5625,319.3125 Q490.0031,319.3125 490.3875,319.4156 Q490.7813,319.5094 491.1094,319.725 Z " fill="#000000"/><text fill="#000000" font-family="sans-serif" font-size="8.4" lengthAdjust="spacing" textLength="27.6" x="501.75" y="325.6781">Course</text><line style="stroke:#181818;stroke-width:0.3;" x1="362.1" x2="649.5" y1="331.8" y2="331.8"/><rect fill="none" height="3.6" style="stroke:#C82930;stroke-width:0.6;" width="3.6" x="366.3" y="338.8863"/><text fill="#000000" font-family="sans-serif" font-size="8.4" lengthAdjust="spacing" textLength="63" x="373.5" y="343.2645">course_id: string</text><rect fill="none" height="3.6" style="stroke:#C82930;stroke-width:0.6;" width="3.6" x="366.3" y="350.059"/><text fill="#000000" font-family="sans-serif" font-size="8.4" lengthAdjust="spacing" textLength="77.4" x="373.5" y="354.4371">course_name: string</text><rect fill="none" height="3.6" style="stroke:#C82930;stroke-width:0.6;" width="3.6" x="366.3" y="361.2316"/><text fill="#000000" font-family="sans-serif" font-size="8.4" lengthAdjust="spacing" textLength="39" x="373.5" y="365.6098">credits: int</text><rect fill="none" height="3.6" style="stroke:#C82930;stroke-width:0.6;" width="3.6" x="366.3" y="372.4043"/><text fill="#000000" font-family="sans-serif" font-size="8.4" lengthAdjust="spacing" textLength="43.2" x="373.5" y="376.7824">grade: float</text><line style="stroke:#181818;stroke-width:0.3;" x1="362.1" x2="649.5" y1="381.2906" y2="381.2906"/><ellipse cx="368.1" cy="390.177" fill="#84BE84" rx="1.8" ry="1.8" style="stroke:#038048;stroke-width:0.6;"/><text fill="#000000" font-family="sans-serif" font-size="8.4" lengthAdjust="spacing" textLength="273" x="373.5" y="392.7551">__init__(course_id: string, course_name: string, credits: int, grade: float)</text><ellipse cx="368.1" cy="401.3496" fill="#84BE84" rx="1.8" ry="1.8" style="stroke:#038048;stroke-width:0.6;"/><text fill="#000000" font-family="sans-serif" font-size="8.4" lengthAdjust="spacing" textLength="87.6" x="373.5" y="403.9277">set_grade(grade: float)</text><ellipse cx="368.1" cy="412.5223" fill="#84BE84" rx="1.8" ry="1.8" style="stroke:#038048;stroke-width:0.6;"/><text fill="#000000" font-family="sans-serif" font-size="8.4" lengthAdjust="spacing" textLength="66" x="373.5" y="415.1004">get_grade(): float</text></g><!--reverse link Person to Administrator--><g id="link_Person_Administrator"><path codeLine="45" d="M295.47,97.446 C286.464,106.182 276.93,115.428 267.408,124.656 " fill="none" id="Person-backto-Administrator" style="stroke:#181818;stroke-width:0.6;"/><polygon fill="none" points="292.74,94.248,304.278,88.908,298.59,100.278,292.74,94.248" style="stroke:#181818;stroke-width:0.6;"/></g><!--reverse link Person to Student--><g id="link_Person_Student"><path codeLine="46" d="M399.342,97.272 C413.952,111.384 429.978,126.864 445.056,141.426 " fill="none" id="Person-backto-Student" style="stroke:#181818;stroke-width:0.6;"/><polygon fill="none" points="396.396,100.266,390.684,88.908,402.234,94.224,396.396,100.266" style="stroke:#181818;stroke-width:0.6;"/></g><!--link Student to Course--><g id="link_Student_Course"><path codeLine="47" d="M505.8,259.848 C505.8,276.972 505.8,295.578 505.8,312.342 " fill="none" id="Student-Course" style="stroke:#181818;stroke-width:0.6;"/><text fill="#000000" font-family="sans-serif" font-size="7.8" lengthAdjust="spacing" textLength="12" x="493.3219" y="305.8754">0..*</text></g><!--SRC=[hLJ1QiGW5BpdAsHFsJPPUWvBeUmF5Fe1OkDh418DQjf3st-lhi-jch0BfRc8yoQJUVEC_SYC8S-WZPBaioBkQIMRe2F6QY67WC34n9X1zvGAAIobTSfkICRSHwhREkO-Ln2SocLw1PqKlgkgFpjwufFJToYpIaTZp8DKyDpSxFWVIXUeiGi7QKr7HYTpV0dRny9ygTYGKgqXjniSm3gDiZ-FUhKIPvnJT5VZsX7qXuBBp9c5afNvlEtAVqV3hFIsGAyMRM0BogLx3Lpu78Mq3HaquwxuDYeMpN8OuQhP9ALXPfk4ozmnXpZnDJVWmMaSxkcyAsVxzzI2UXsMZWHvh6kOr3jSfVX6qQ2V_ThYridF8jfZmh-vXFTZBAlPPV3w_qrd691qZaLk_tOmZE_6m_L6SRWKqsRn8Zf-jMr-1MGLF2HLF2mEsZqS3dSxZAdw0G00]--></g></svg>